<?xml version="1.0" standalone="no"?><!-- Generator: Adobe Fireworks CS6, Export SVG Extension by Aaron Beall (http://fireworks.abeall.com) . Version: 0.6.1  --><!DOCTYPE svg PUBLIC "-//W3C//DTD SVG 1.1//EN" "http://www.w3.org/Graphics/SVG/1.1/DTD/svg11.dtd"><svg id="Untitled-Page%201" viewBox="0 0 516 516" style="background-color:#ffffff00" version="1.1"	xmlns="http://www.w3.org/2000/svg" xmlns:xlink="http://www.w3.org/1999/xlink" xml:space="preserve"	x="0px" y="0px" width="516px" height="516px">	<g id="Layer%201">		<g>			<g>				<path d="M 187.9744 374.8441 L 215.1201 374.8441 L 215.1201 293.5159 L 187.9744 320.9624 L 187.9744 374.8441 Z" fill="#70c662"/>				<path d="M 307.2646 374.8441 L 334.4103 374.8441 L 334.4103 248.7082 L 307.2646 276.1449 L 307.2646 374.8441 Z" fill="#70c662"/>				<path d="M 347.0291 374.8441 L 372.2471 374.8441 L 372.2471 210.455 L 347.0291 235.9502 L 347.0291 374.8441 Z" fill="#70c662"/>				<path d="M 267.5004 316.3494 L 267.5004 374.8441 L 294.6487 374.8441 L 294.6487 288.9029 L 272.9072 310.8757 L 267.5004 316.3494 Z" fill="#70c662"/>				<path d="M 227.7386 292.2762 L 227.7386 374.8441 L 254.8843 374.8441 L 254.8843 319.6879 L 246.1598 310.8757 L 227.7386 292.2762 Z" fill="#70c662"/>				<path d="M 145.0121 364.4148 L 145.0121 374.8441 L 175.3584 374.8441 L 175.3584 333.7176 L 158.3774 350.8852 L 145.0121 364.4148 Z" fill="#70c662"/>				<path d="M 396.6127 107.2919 L 297.6572 107.2919 L 335.1401 145.1927 L 321.7609 158.7056 L 259.5447 221.6295 L 222.0393 183.7453 L 107.5598 299.4979 L 145.0121 337.3639 L 222.0393 259.4787 L 259.5447 297.346 L 372.5953 183.0601 L 409.613 220.4873 L 409.613 119.8912 C 409.613 113.1793 403.2535 107.2919 396.6127 107.2919 Z" fill="#70c662"/>			</g>			<g>				<path id="Ellipse" d="M 8 258 C 8 119.9267 119.9268 8 258 8 C 396.0732 8 508 119.9267 508 258 C 508 396.0732 396.0732 508 258 508 C 119.9268 508 8 396.0732 8 258 Z" stroke="#70c662" stroke-width="17" fill="none"/>			</g>		</g>	</g></svg>